<svg xmlns="http://www.w3.org/2000/svg" width="1120" height="560" viewBox="0 0 1120 560">
<rect width="100%" height="100%" fill="#ffffff"/>
<text x="560.0" y="32" text-anchor="middle" font-family="Arial" font-size="22" font-weight="700">Goodput</text>
<line x1="72" y1="424" x2="1096" y2="424" stroke="#111827"/>
<line x1="72" y1="64" x2="72" y2="424" stroke="#111827"/>
<line x1="68" y1="424.0" x2="1096" y2="424.0" stroke="#e5e7eb"/>
<text x="62" y="428.0" text-anchor="end" font-family="Arial" font-size="11">0.00</text>
<line x1="68" y1="352.0" x2="1096" y2="352.0" stroke="#e5e7eb"/>
<text x="62" y="356.0" text-anchor="end" font-family="Arial" font-size="11">0.05</text>
<line x1="68" y1="280.0" x2="1096" y2="280.0" stroke="#e5e7eb"/>
<text x="62" y="284.0" text-anchor="end" font-family="Arial" font-size="11">0.11</text>
<line x1="68" y1="208.0" x2="1096" y2="208.0" stroke="#e5e7eb"/>
<text x="62" y="212.0" text-anchor="end" font-family="Arial" font-size="11">0.16</text>
<line x1="68" y1="136.0" x2="1096" y2="136.0" stroke="#e5e7eb"/>
<text x="62" y="140.0" text-anchor="end" font-family="Arial" font-size="11">0.22</text>
<line x1="68" y1="64.0" x2="1096" y2="64.0" stroke="#e5e7eb"/>
<text x="62" y="68.0" text-anchor="end" font-family="Arial" font-size="11">0.27</text>
<text x="157.3" y="446" text-anchor="middle" font-family="Arial" font-size="10">bursty</text>
<text x="157.3" y="462" text-anchor="middle" font-family="Arial" font-size="10">scale 4</text>
<text x="157.3" y="478" text-anchor="middle" font-family="Arial" font-size="10">2.5s</text>
<rect x="80.0" y="276.6" width="35.7" height="147.4" fill="#2563eb"/>
<rect x="119.7" y="262.3" width="35.7" height="161.7" fill="#dc2626"/>
<rect x="159.3" y="256.6" width="35.7" height="167.4" fill="#059669"/>
<rect x="199.0" y="272.7" width="35.7" height="151.3" fill="#7c3aed"/>
<text x="328.0" y="446" text-anchor="middle" font-family="Arial" font-size="10">bursty</text>
<text x="328.0" y="462" text-anchor="middle" font-family="Arial" font-size="10">scale 6</text>
<text x="328.0" y="478" text-anchor="middle" font-family="Arial" font-size="10">2.5s</text>
<rect x="250.7" y="300.9" width="35.7" height="123.1" fill="#2563eb"/>
<rect x="290.3" y="111.0" width="35.7" height="313.0" fill="#dc2626"/>
<rect x="330.0" y="201.9" width="35.7" height="222.1" fill="#059669"/>
<rect x="369.7" y="241.6" width="35.7" height="182.4" fill="#7c3aed"/>
<text x="498.7" y="446" text-anchor="middle" font-family="Arial" font-size="10">large-heavy</text>
<text x="498.7" y="462" text-anchor="middle" font-family="Arial" font-size="10">scale 4</text>
<text x="498.7" y="478" text-anchor="middle" font-family="Arial" font-size="10">2.5s</text>
<rect x="421.3" y="359.3" width="35.7" height="64.7" fill="#2563eb"/>
<rect x="461.0" y="315.0" width="35.7" height="109.0" fill="#dc2626"/>
<rect x="500.7" y="341.3" width="35.7" height="82.7" fill="#059669"/>
<rect x="540.3" y="316.9" width="35.7" height="107.1" fill="#7c3aed"/>
<text x="669.3" y="446" text-anchor="middle" font-family="Arial" font-size="10">large-heavy</text>
<text x="669.3" y="462" text-anchor="middle" font-family="Arial" font-size="10">scale 6</text>
<text x="669.3" y="478" text-anchor="middle" font-family="Arial" font-size="10">2.5s</text>
<rect x="592.0" y="267.0" width="35.7" height="157.0" fill="#2563eb"/>
<rect x="631.7" y="236.0" width="35.7" height="188.0" fill="#dc2626"/>
<rect x="671.3" y="286.9" width="35.7" height="137.1" fill="#059669"/>
<rect x="711.0" y="254.0" width="35.7" height="170.0" fill="#7c3aed"/>
<text x="840.0" y="446" text-anchor="middle" font-family="Arial" font-size="10">rectangular-mix</text>
<text x="840.0" y="462" text-anchor="middle" font-family="Arial" font-size="10">scale 4</text>
<text x="840.0" y="478" text-anchor="middle" font-family="Arial" font-size="10">2.5s</text>
<rect x="762.7" y="321.2" width="35.7" height="102.8" fill="#2563eb"/>
<rect x="802.3" y="288.7" width="35.7" height="135.3" fill="#dc2626"/>
<rect x="842.0" y="288.4" width="35.7" height="135.6" fill="#059669"/>
<rect x="881.7" y="280.4" width="35.7" height="143.6" fill="#7c3aed"/>
<text x="1010.7" y="446" text-anchor="middle" font-family="Arial" font-size="10">rectangular-mix</text>
<text x="1010.7" y="462" text-anchor="middle" font-family="Arial" font-size="10">scale 6</text>
<text x="1010.7" y="478" text-anchor="middle" font-family="Arial" font-size="10">2.5s</text>
<rect x="933.3" y="264.0" width="35.7" height="160.0" fill="#2563eb"/>
<rect x="973.0" y="201.7" width="35.7" height="222.3" fill="#dc2626"/>
<rect x="1012.7" y="184.0" width="35.7" height="240.0" fill="#059669"/>
<rect x="1052.3" y="219.0" width="35.7" height="205.0" fill="#7c3aed"/>
<rect x="72" y="514" width="12" height="12" fill="#2563eb"/>
<text x="90" y="524" font-family="Arial" font-size="12">current</text>
<rect x="322" y="514" width="12" height="12" fill="#dc2626"/>
<text x="340" y="524" font-family="Arial" font-size="12">slo_no_preemption_adaptive_guarded</text>
<rect x="572" y="514" width="12" height="12" fill="#059669"/>
<text x="590" y="524" font-family="Arial" font-size="12">slo_no_preemption_guarded</text>
<rect x="822" y="514" width="12" height="12" fill="#7c3aed"/>
<text x="840" y="524" font-family="Arial" font-size="12">slo_no_preemption_lookup</text>
</svg>
