<svg xmlns="http://www.w3.org/2000/svg" width="1120" height="560" viewBox="0 0 1120 560">
<rect width="100%" height="100%" fill="#ffffff"/>
<text x="560.0" y="32" text-anchor="middle" font-family="Arial" font-size="22" font-weight="700">Throughput</text>
<line x1="72" y1="424" x2="1096" y2="424" stroke="#111827"/>
<line x1="72" y1="64" x2="72" y2="424" stroke="#111827"/>
<line x1="68" y1="424.0" x2="1096" y2="424.0" stroke="#e5e7eb"/>
<text x="62" y="428.0" text-anchor="end" font-family="Arial" font-size="11">0.00</text>
<line x1="68" y1="352.0" x2="1096" y2="352.0" stroke="#e5e7eb"/>
<text x="62" y="356.0" text-anchor="end" font-family="Arial" font-size="11">0.06</text>
<line x1="68" y1="280.0" x2="1096" y2="280.0" stroke="#e5e7eb"/>
<text x="62" y="284.0" text-anchor="end" font-family="Arial" font-size="11">0.12</text>
<line x1="68" y1="208.0" x2="1096" y2="208.0" stroke="#e5e7eb"/>
<text x="62" y="212.0" text-anchor="end" font-family="Arial" font-size="11">0.18</text>
<line x1="68" y1="136.0" x2="1096" y2="136.0" stroke="#e5e7eb"/>
<text x="62" y="140.0" text-anchor="end" font-family="Arial" font-size="11">0.24</text>
<line x1="68" y1="64.0" x2="1096" y2="64.0" stroke="#e5e7eb"/>
<text x="62" y="68.0" text-anchor="end" font-family="Arial" font-size="11">0.30</text>
<text x="157.3" y="446" text-anchor="middle" font-family="Arial" font-size="10">bursty</text>
<text x="157.3" y="462" text-anchor="middle" font-family="Arial" font-size="10">scale 4</text>
<text x="157.3" y="478" text-anchor="middle" font-family="Arial" font-size="10">2.5s</text>
<rect x="80.0" y="198.9" width="35.7" height="225.1" fill="#2563eb"/>
<rect x="119.7" y="190.0" width="35.7" height="234.0" fill="#dc2626"/>
<rect x="159.3" y="168.2" width="35.7" height="255.8" fill="#059669"/>
<rect x="199.0" y="163.9" width="35.7" height="260.1" fill="#7c3aed"/>
<text x="328.0" y="446" text-anchor="middle" font-family="Arial" font-size="10">bursty</text>
<text x="328.0" y="462" text-anchor="middle" font-family="Arial" font-size="10">scale 6</text>
<text x="328.0" y="478" text-anchor="middle" font-family="Arial" font-size="10">2.5s</text>
<rect x="250.7" y="245.8" width="35.7" height="178.2" fill="#2563eb"/>
<rect x="290.3" y="111.0" width="35.7" height="313.0" fill="#dc2626"/>
<rect x="330.0" y="169.5" width="35.7" height="254.5" fill="#059669"/>
<rect x="369.7" y="196.0" width="35.7" height="228.0" fill="#7c3aed"/>
<text x="498.7" y="446" text-anchor="middle" font-family="Arial" font-size="10">large-heavy</text>
<text x="498.7" y="462" text-anchor="middle" font-family="Arial" font-size="10">scale 4</text>
<text x="498.7" y="478" text-anchor="middle" font-family="Arial" font-size="10">2.5s</text>
<rect x="421.3" y="270.3" width="35.7" height="153.7" fill="#2563eb"/>
<rect x="461.0" y="242.4" width="35.7" height="181.6" fill="#dc2626"/>
<rect x="500.7" y="275.1" width="35.7" height="148.9" fill="#059669"/>
<rect x="540.3" y="266.9" width="35.7" height="157.1" fill="#7c3aed"/>
<text x="669.3" y="446" text-anchor="middle" font-family="Arial" font-size="10">large-heavy</text>
<text x="669.3" y="462" text-anchor="middle" font-family="Arial" font-size="10">scale 6</text>
<text x="669.3" y="478" text-anchor="middle" font-family="Arial" font-size="10">2.5s</text>
<rect x="592.0" y="208.2" width="35.7" height="215.8" fill="#2563eb"/>
<rect x="631.7" y="199.2" width="35.7" height="224.8" fill="#dc2626"/>
<rect x="671.3" y="220.3" width="35.7" height="203.7" fill="#059669"/>
<rect x="711.0" y="195.9" width="35.7" height="228.1" fill="#7c3aed"/>
<text x="840.0" y="446" text-anchor="middle" font-family="Arial" font-size="10">rectangular-mix</text>
<text x="840.0" y="462" text-anchor="middle" font-family="Arial" font-size="10">scale 4</text>
<text x="840.0" y="478" text-anchor="middle" font-family="Arial" font-size="10">2.5s</text>
<rect x="762.7" y="229.1" width="35.7" height="194.9" fill="#2563eb"/>
<rect x="802.3" y="222.9" width="35.7" height="201.1" fill="#dc2626"/>
<rect x="842.0" y="211.0" width="35.7" height="213.0" fill="#059669"/>
<rect x="881.7" y="177.2" width="35.7" height="246.8" fill="#7c3aed"/>
<text x="1010.7" y="446" text-anchor="middle" font-family="Arial" font-size="10">rectangular-mix</text>
<text x="1010.7" y="462" text-anchor="middle" font-family="Arial" font-size="10">scale 6</text>
<text x="1010.7" y="478" text-anchor="middle" font-family="Arial" font-size="10">2.5s</text>
<rect x="933.3" y="209.4" width="35.7" height="214.6" fill="#2563eb"/>
<rect x="973.0" y="158.2" width="35.7" height="265.8" fill="#dc2626"/>
<rect x="1012.7" y="154.6" width="35.7" height="269.4" fill="#059669"/>
<rect x="1052.3" y="184.1" width="35.7" height="239.9" fill="#7c3aed"/>
<rect x="72" y="514" width="12" height="12" fill="#2563eb"/>
<text x="90" y="524" font-family="Arial" font-size="12">current</text>
<rect x="322" y="514" width="12" height="12" fill="#dc2626"/>
<text x="340" y="524" font-family="Arial" font-size="12">slo_no_preemption_adaptive_guarded</text>
<rect x="572" y="514" width="12" height="12" fill="#059669"/>
<text x="590" y="524" font-family="Arial" font-size="12">slo_no_preemption_guarded</text>
<rect x="822" y="514" width="12" height="12" fill="#7c3aed"/>
<text x="840" y="524" font-family="Arial" font-size="12">slo_no_preemption_lookup</text>
</svg>
