<svg xmlns="http://www.w3.org/2000/svg" width="1120" height="520" viewBox="0 0 1120 520">
<rect width="100%" height="100%" fill="#ffffff"/>
<text x="560.0" y="32" text-anchor="middle" font-family="Arial" font-size="22" font-weight="700">Combined Repeat0-2 Goodput</text>
<line x1="78" y1="408" x2="1096" y2="408" stroke="#111827"/>
<line x1="78" y1="58" x2="78" y2="408" stroke="#111827"/>
<line x1="74" y1="408.0" x2="1096" y2="408.0" stroke="#e5e7eb"/>
<text x="68" y="412.0" text-anchor="end" font-family="Arial" font-size="11">0.00</text>
<line x1="74" y1="338.0" x2="1096" y2="338.0" stroke="#e5e7eb"/>
<text x="68" y="342.0" text-anchor="end" font-family="Arial" font-size="11">0.04</text>
<line x1="74" y1="268.0" x2="1096" y2="268.0" stroke="#e5e7eb"/>
<text x="68" y="272.0" text-anchor="end" font-family="Arial" font-size="11">0.08</text>
<line x1="74" y1="198.0" x2="1096" y2="198.0" stroke="#e5e7eb"/>
<text x="68" y="202.0" text-anchor="end" font-family="Arial" font-size="11">0.13</text>
<line x1="74" y1="128.0" x2="1096" y2="128.0" stroke="#e5e7eb"/>
<text x="68" y="132.0" text-anchor="end" font-family="Arial" font-size="11">0.17</text>
<line x1="74" y1="58.0" x2="1096" y2="58.0" stroke="#e5e7eb"/>
<text x="68" y="62.0" text-anchor="end" font-family="Arial" font-size="11">0.21</text>
<text x="205.2" y="432" text-anchor="middle" font-family="Arial" font-size="11">large-heavy</text>
<text x="205.2" y="448" text-anchor="middle" font-family="Arial" font-size="11">scale 4</text>
<rect x="90.0" y="270.6" width="73.5" height="137.4" fill="#2563eb"/>
<rect x="168.5" y="274.2" width="73.5" height="133.8" fill="#059669"/>
<rect x="247.0" y="261.4" width="73.5" height="146.6" fill="#dc2626"/>
<text x="459.8" y="432" text-anchor="middle" font-family="Arial" font-size="11">large-heavy</text>
<text x="459.8" y="448" text-anchor="middle" font-family="Arial" font-size="11">scale 6</text>
<rect x="344.5" y="212.4" width="73.5" height="195.6" fill="#2563eb"/>
<rect x="423.0" y="246.3" width="73.5" height="161.7" fill="#059669"/>
<rect x="501.5" y="185.0" width="73.5" height="223.0" fill="#dc2626"/>
<text x="714.2" y="432" text-anchor="middle" font-family="Arial" font-size="11">rectangular-mix</text>
<text x="714.2" y="448" text-anchor="middle" font-family="Arial" font-size="11">scale 4</text>
<rect x="599.0" y="227.2" width="73.5" height="180.8" fill="#2563eb"/>
<rect x="677.5" y="215.3" width="73.5" height="192.7" fill="#059669"/>
<rect x="756.0" y="196.2" width="73.5" height="211.8" fill="#dc2626"/>
<text x="968.8" y="432" text-anchor="middle" font-family="Arial" font-size="11">rectangular-mix</text>
<text x="968.8" y="448" text-anchor="middle" font-family="Arial" font-size="11">scale 6</text>
<rect x="853.5" y="147.3" width="73.5" height="260.7" fill="#2563eb"/>
<rect x="932.0" y="120.1" width="73.5" height="287.9" fill="#059669"/>
<rect x="1010.5" y="111.4" width="73.5" height="296.6" fill="#dc2626"/>
<rect x="78" y="478" width="12" height="12" fill="#2563eb"/>
<text x="96" y="488" font-family="Arial" font-size="12">lookup</text>
<rect x="298" y="478" width="12" height="12" fill="#059669"/>
<text x="316" y="488" font-family="Arial" font-size="12">guarded</text>
<rect x="518" y="478" width="12" height="12" fill="#dc2626"/>
<text x="536" y="488" font-family="Arial" font-size="12">adaptive</text>
</svg>
