<svg xmlns="http://www.w3.org/2000/svg" width="980" height="340" viewBox="0 0 980 340">
<rect width="100%" height="100%" fill="white"/>
<text x="54" y="28" font-family="sans-serif" font-size="18" font-weight="700">P95 Latency</text>
<rect x="54.0" y="213.7" width="67.6" height="72.3" fill="#666666"/>
<text x="87.8" y="209.7" font-family="sans-serif" font-size="10" text-anchor="middle">21.069</text>
<text x="87.8" y="300" font-family="sans-serif" font-size="9" text-anchor="middle">baseline_7replica</text>
<text x="87.8" y="312" font-family="sans-serif" font-size="9" text-anchor="middle">4step</text>
<rect x="163.0" y="148.8" width="67.6" height="137.2" fill="#666666"/>
<text x="196.8" y="144.8" font-family="sans-serif" font-size="10" text-anchor="middle">39.960</text>
<text x="196.8" y="300" font-family="sans-serif" font-size="9" text-anchor="middle">baseline_7replica</text>
<text x="196.8" y="312" font-family="sans-serif" font-size="9" text-anchor="middle">8step</text>
<rect x="272.0" y="84.0" width="67.6" height="202.0" fill="#666666"/>
<text x="305.8" y="80.0" font-family="sans-serif" font-size="10" text-anchor="middle">58.831</text>
<text x="305.8" y="300" font-family="sans-serif" font-size="9" text-anchor="middle">baseline_7replica</text>
<text x="305.8" y="312" font-family="sans-serif" font-size="9" text-anchor="middle">12step</text>
<rect x="381.0" y="205.8" width="67.6" height="80.2" fill="#2d7dd2"/>
<text x="414.8" y="201.8" font-family="sans-serif" font-size="10" text-anchor="middle">23.371</text>
<text x="414.8" y="300" font-family="sans-serif" font-size="9" text-anchor="middle">p_1decode</text>
<text x="414.8" y="312" font-family="sans-serif" font-size="9" text-anchor="middle">4step</text>
<rect x="490.0" y="160.8" width="67.6" height="125.2" fill="#2d7dd2"/>
<text x="523.8" y="156.8" font-family="sans-serif" font-size="10" text-anchor="middle">36.457</text>
<text x="523.8" y="300" font-family="sans-serif" font-size="9" text-anchor="middle">p_1decode</text>
<text x="523.8" y="312" font-family="sans-serif" font-size="9" text-anchor="middle">8step</text>
<rect x="599.0" y="103.7" width="67.6" height="182.3" fill="#2d7dd2"/>
<text x="632.8" y="99.7" font-family="sans-serif" font-size="10" text-anchor="middle">53.081</text>
<text x="632.8" y="300" font-family="sans-serif" font-size="9" text-anchor="middle">p_1decode</text>
<text x="632.8" y="312" font-family="sans-serif" font-size="9" text-anchor="middle">12step</text>
<rect x="708.0" y="216.6" width="67.6" height="69.4" fill="#2a9d8f"/>
<text x="741.8" y="212.6" font-family="sans-serif" font-size="10" text-anchor="middle">20.226</text>
<text x="741.8" y="300" font-family="sans-serif" font-size="9" text-anchor="middle">p_1decode_dummy_decode</text>
<text x="741.8" y="312" font-family="sans-serif" font-size="9" text-anchor="middle">4step</text>
<rect x="817.0" y="224.7" width="67.6" height="61.3" fill="#e9c46a"/>
<text x="850.8" y="220.7" font-family="sans-serif" font-size="10" text-anchor="middle">17.860</text>
<text x="850.8" y="300" font-family="sans-serif" font-size="9" text-anchor="middle">p_1decode_stagger_0p15</text>
<text x="850.8" y="312" font-family="sans-serif" font-size="9" text-anchor="middle">4step</text>
<line x1="54" x2="926" y1="286" y2="286" stroke="#333"/>
</svg>