<svg xmlns="http://www.w3.org/2000/svg" width="1120" height="560" viewBox="0 0 1120 560">
<rect width="100%" height="100%" fill="#ffffff"/>
<text x="560.0" y="32" text-anchor="middle" font-family="Arial" font-size="22" font-weight="700">Mean Bucket Size</text>
<line x1="72" y1="424" x2="1096" y2="424" stroke="#111827"/>
<line x1="72" y1="64" x2="72" y2="424" stroke="#111827"/>
<line x1="68" y1="424.0" x2="1096" y2="424.0" stroke="#e5e7eb"/>
<text x="62" y="428.0" text-anchor="end" font-family="Arial" font-size="11">0.00</text>
<line x1="68" y1="352.0" x2="1096" y2="352.0" stroke="#e5e7eb"/>
<text x="62" y="356.0" text-anchor="end" font-family="Arial" font-size="11">0.40</text>
<line x1="68" y1="280.0" x2="1096" y2="280.0" stroke="#e5e7eb"/>
<text x="62" y="284.0" text-anchor="end" font-family="Arial" font-size="11">0.80</text>
<line x1="68" y1="208.0" x2="1096" y2="208.0" stroke="#e5e7eb"/>
<text x="62" y="212.0" text-anchor="end" font-family="Arial" font-size="11">1.20</text>
<line x1="68" y1="136.0" x2="1096" y2="136.0" stroke="#e5e7eb"/>
<text x="62" y="140.0" text-anchor="end" font-family="Arial" font-size="11">1.60</text>
<line x1="68" y1="64.0" x2="1096" y2="64.0" stroke="#e5e7eb"/>
<text x="62" y="68.0" text-anchor="end" font-family="Arial" font-size="11">2.00</text>
<text x="584.0" y="446" text-anchor="middle" font-family="Arial" font-size="10">current-mix</text>
<text x="584.0" y="462" text-anchor="middle" font-family="Arial" font-size="10">scale 6</text>
<text x="584.0" y="478" text-anchor="middle" font-family="Arial" font-size="10">2.5s</text>
<rect x="80.0" y="190.4" width="249.0" height="233.6" fill="#2563eb"/>
<rect x="333.0" y="111.0" width="249.0" height="313.0" fill="#dc2626"/>
<rect x="586.0" y="113.6" width="249.0" height="310.4" fill="#059669"/>
<rect x="839.0" y="119.7" width="249.0" height="304.3" fill="#7c3aed"/>
<rect x="72" y="514" width="12" height="12" fill="#2563eb"/>
<text x="90" y="524" font-family="Arial" font-size="12">current</text>
<rect x="322" y="514" width="12" height="12" fill="#dc2626"/>
<text x="340" y="524" font-family="Arial" font-size="12">slo_no_preemption_adaptive_guarded</text>
<rect x="572" y="514" width="12" height="12" fill="#059669"/>
<text x="590" y="524" font-family="Arial" font-size="12">slo_no_preemption_guarded</text>
<rect x="822" y="514" width="12" height="12" fill="#7c3aed"/>
<text x="840" y="524" font-family="Arial" font-size="12">slo_no_preemption_lookup</text>
</svg>
